<?xml version="1.0" encoding="UTF-8"?>
<svg id="Layer_1" data-name="Layer 1" xmlns="http://www.w3.org/2000/svg" viewBox="0 0 1920 1080">
  <rect width="1920" height="1080" fill="#fff"/>
  <g>
    <g>
      <g>
        <path d="M901.566,444.479l-36.763,70.877v37.854h-21.809v-37.854l-36.918-70.877h24.612l23.366,49.692,23.212-49.692h24.3Z" fill="#083400"/>
        <path d="M905.112,486.538c3.479-6.749,8.203-11.941,14.176-15.576,5.97-3.635,12.641-5.452,20.017-5.452,6.438,0,12.072,1.299,16.901,3.893,4.829,2.598,8.697,5.868,11.606,9.815v-12.306h21.964v86.298h-21.964v-12.617c-2.804,4.05-6.673,7.399-11.606,10.047-4.932,2.648-10.618,3.972-17.056,3.972-7.27,0-13.892-1.87-19.862-5.609-5.973-3.738-10.697-9.008-14.176-15.81-3.48-6.801-5.218-14.616-5.218-23.444,0-8.724,1.737-16.459,5.218-23.212ZM964.696,496.43c-2.078-3.79-4.883-6.697-8.411-8.724-3.532-2.025-7.322-3.036-11.372-3.036s-7.788.988-11.217,2.959c-3.427,1.973-6.205,4.857-8.334,8.645-2.13,3.794-3.193,8.284-3.193,13.476s1.063,9.736,3.193,13.629c2.128,3.895,4.932,6.882,8.413,8.958,3.479,2.078,7.189,3.116,11.138,3.116,4.05,0,7.84-1.013,11.372-3.038,3.528-2.025,6.333-4.93,8.411-8.722,2.076-3.79,3.116-8.335,3.116-13.631s-1.039-9.839-3.116-13.631Z" fill="#083400"/>
        <path d="M1043.908,469.559c4.516-2.594,9.682-3.895,15.499-3.895v22.898h-5.763c-6.854,0-12.022,1.612-15.501,4.829-3.48,3.221-5.218,8.829-5.218,16.824v42.994h-21.808v-86.298h21.808v13.395c2.804-4.568,6.465-8.151,10.983-10.747Z" fill="#083400"/>
        <path d="M1073.658,486.538c3.479-6.749,8.23-11.941,14.253-15.576,6.021-3.635,12.72-5.452,20.096-5.452,5.607,0,10.955,1.222,16.044,3.659,5.087,2.441,9.137,5.686,12.151,9.738v-40.969h22.119v115.273h-22.119v-12.774c-2.703,4.26-6.493,7.687-11.372,10.281-4.883,2.594-10.543,3.895-16.98,3.895-7.27,0-13.918-1.87-19.939-5.609-6.023-3.738-10.775-9.008-14.253-15.81-3.48-6.801-5.218-14.616-5.218-23.444,0-8.724,1.737-16.459,5.218-23.212ZM1133.242,496.43c-2.078-3.79-4.883-6.697-8.411-8.724-3.532-2.025-7.322-3.036-11.372-3.036s-7.788.988-11.217,2.959c-3.427,1.973-6.205,4.857-8.334,8.645-2.13,3.794-3.193,8.284-3.193,13.476s1.063,9.736,3.193,13.629c2.128,3.895,4.932,6.882,8.413,8.958,3.479,2.078,7.189,3.116,11.138,3.116,4.05,0,7.84-1.013,11.372-3.038,3.528-2.025,6.333-4.93,8.411-8.722,2.076-3.79,3.116-8.335,3.116-13.631s-1.039-9.839-3.116-13.631Z" fill="#083400"/>
        <path d="M1259.262,516.603h-63.088c.518,6.231,2.699,11.114,6.541,14.642,3.842,3.532,8.569,5.297,14.176,5.297,8.101,0,13.865-3.479,17.292-10.438h23.521c-2.493,8.31-7.27,15.136-14.331,20.485-7.064,5.349-15.733,8.022-26.014,8.022-8.31,0-15.761-1.842-22.355-5.529-6.596-3.687-11.737-8.905-15.422-15.656-3.687-6.751-5.529-14.539-5.529-23.366,0-8.931,1.817-16.77,5.452-23.523,3.633-6.749,8.724-11.941,15.267-15.576s14.071-5.452,22.587-5.452c8.203,0,15.551,1.767,22.042,5.295,6.489,3.532,11.527,8.544,15.11,15.033,3.584,6.491,5.375,13.942,5.375,22.353,0,3.116-.21,5.92-.623,8.413ZM1237.298,501.959c-.105-5.607-2.13-10.099-6.077-13.474-3.947-3.374-8.776-5.063-14.486-5.063-5.402,0-9.946,1.636-13.631,4.908-3.689,3.27-5.946,7.814-6.777,13.629h40.969Z" fill="#083400"/>
        <path d="M1355.374,516.603h-63.088c.518,6.231,2.699,11.114,6.541,14.642,3.842,3.532,8.569,5.297,14.176,5.297,8.101,0,13.865-3.479,17.292-10.438h23.521c-2.493,8.31-7.27,15.136-14.331,20.485-7.064,5.349-15.733,8.022-26.014,8.022-8.31,0-15.761-1.842-22.355-5.529-6.596-3.687-11.737-8.905-15.422-15.656-3.687-6.751-5.529-14.539-5.529-23.366,0-8.931,1.817-16.77,5.452-23.523,3.633-6.749,8.724-11.941,15.267-15.576,6.543-3.635,14.071-5.452,22.587-5.452,8.203,0,15.551,1.767,22.042,5.295,6.489,3.532,11.527,8.544,15.11,15.033,3.584,6.491,5.375,13.942,5.375,22.353,0,3.116-.21,5.92-.623,8.413ZM1333.409,501.959c-.105-5.607-2.13-10.099-6.077-13.474-3.947-3.374-8.776-5.063-14.486-5.063-5.402,0-9.946,1.636-13.631,4.908-3.689,3.27-5.946,7.814-6.777,13.629h40.969Z" fill="#083400"/>
      </g>
      <g>
        <path d="M840.31,625.131c-2.342-.999-4.193-2.439-5.555-4.322-1.36-1.881-2.062-4.101-2.1-6.664h9.006c.12,1.723.73,3.082,1.831,4.083,1.1,1,2.611,1.502,4.533,1.502,1.96,0,3.501-.47,4.623-1.411,1.12-.94,1.68-2.17,1.68-3.692,0-1.24-.38-2.261-1.14-3.062-.761-.8-1.712-1.43-2.852-1.89s-2.712-.971-4.713-1.531c-2.721-.801-4.932-1.592-6.633-2.371-1.702-.781-3.164-1.96-4.383-3.543-1.222-1.581-1.831-3.692-1.831-6.334,0-2.48.621-4.641,1.861-6.484,1.24-1.841,2.981-3.252,5.223-4.232,2.24-.98,4.803-1.472,7.685-1.472,4.322,0,7.834,1.052,10.537,3.152,2.701,2.102,4.192,5.034,4.472,8.796h-9.246c-.081-1.441-.689-2.631-1.831-3.573-1.14-.94-2.651-1.411-4.533-1.411-1.642,0-2.952.42-3.932,1.262-.982.84-1.47,2.062-1.47,3.661,0,1.122.368,2.053,1.109,2.793s1.662,1.341,2.762,1.8c1.102.461,2.651.991,4.654,1.592,2.721.801,4.942,1.601,6.664,2.401,1.719.801,3.2,2.003,4.442,3.602,1.24,1.601,1.861,3.703,1.861,6.305,0,2.242-.58,4.322-1.741,6.244-1.161,1.92-2.861,3.451-5.104,4.591-2.24,1.142-4.903,1.712-7.983,1.712-2.922,0-5.555-.499-7.895-1.502Z" fill="#083400"/>
        <path d="M883.176,593.941c1.901-1.021,4.072-1.531,6.515-1.531,2.841,0,5.411.702,7.714,2.102,2.301,1.402,4.122,3.392,5.463,5.973,1.341,2.581,2.012,5.574,2.012,8.977s-.671,6.414-2.012,9.036c-1.341,2.622-3.162,4.652-5.463,6.093-2.303,1.441-4.873,2.161-7.714,2.161-2.443,0-4.593-.501-6.454-1.5-1.863-1-3.374-2.261-4.534-3.783v20.593h-8.405v-49.111h8.405v4.802c1.082-1.52,2.572-2.791,4.474-3.812ZM895.064,604.269c-.822-1.461-1.901-2.572-3.243-3.331-1.341-.761-2.791-1.142-4.352-1.142-1.522,0-2.952.391-4.293,1.172-1.341.779-2.423,1.911-3.243,3.392s-1.231,3.223-1.231,5.223.411,3.742,1.231,5.223,1.901,2.611,3.243,3.392c1.341.779,2.771,1.17,4.293,1.17,1.561,0,3.011-.4,4.352-1.199,1.341-.801,2.421-1.942,3.243-3.423.82-1.48,1.231-3.241,1.231-5.282,0-2.001-.411-3.733-1.231-5.194Z" fill="#083400"/>
        <path d="M910.854,600.515c1.341-2.6,3.162-4.601,5.463-6.003,2.301-1.4,4.873-2.102,7.714-2.102,2.482,0,4.654.501,6.515,1.502s3.351,2.263,4.474,3.783v-4.743h8.464v33.26h-8.464v-4.862c-1.082,1.561-2.572,2.85-4.474,3.871-1.901,1.021-4.092,1.531-6.574,1.531-2.802,0-5.354-.72-7.656-2.161-2.301-1.441-4.122-3.471-5.463-6.093-1.341-2.622-2.012-5.634-2.012-9.036,0-3.363.671-6.344,2.012-8.947ZM933.818,604.329c-.801-1.461-1.881-2.583-3.243-3.363-1.362-.781-2.821-1.172-4.381-1.172s-3.003.381-4.324,1.142c-1.321.759-2.392,1.87-3.211,3.331s-1.231,3.193-1.231,5.194.411,3.751,1.231,5.253,1.901,2.651,3.243,3.453c1.339.8,2.771,1.199,4.293,1.199,1.561,0,3.02-.391,4.381-1.17,1.362-.781,2.441-1.901,3.243-3.363.8-1.461,1.201-3.211,1.201-5.253s-.402-3.792-1.201-5.253Z" fill="#083400"/>
        <path d="M951.65,600.547c1.4-2.581,3.34-4.582,5.824-6.005,2.48-1.421,5.323-2.132,8.525-2.132,4.122,0,7.534,1.032,10.237,3.094,2.701,2.062,4.512,4.953,5.433,8.674h-9.067c-.481-1.441-1.29-2.57-2.432-3.392-1.14-.82-2.55-1.231-4.232-1.231-2.401,0-4.302.871-5.702,2.613-1.402,1.739-2.102,4.212-2.102,7.414,0,3.162.7,5.614,2.102,7.355,1.4,1.741,3.302,2.611,5.702,2.611,3.401,0,5.623-1.52,6.664-4.562h9.067c-.921,3.602-2.743,6.463-5.465,8.584-2.721,2.123-6.123,3.182-10.206,3.182-3.202,0-6.045-.709-8.525-2.132-2.484-1.419-4.424-3.421-5.824-6.003-1.402-2.581-2.102-5.594-2.102-9.036s.7-6.454,2.102-9.036Z" fill="#083400"/>
        <path d="M1018.532,612.103h-24.317c.201,2.403,1.041,4.284,2.522,5.644,1.48,1.362,3.302,2.041,5.463,2.041,3.123,0,5.343-1.339,6.664-4.022h9.067c-.962,3.202-2.802,5.835-5.524,7.895-2.723,2.062-6.064,3.092-10.027,3.092-3.202,0-6.075-.709-8.615-2.132-2.543-1.419-4.523-3.431-5.944-6.032s-2.132-5.605-2.132-9.006c0-3.442.7-6.463,2.102-9.067,1.4-2.6,3.363-4.601,5.883-6.003,2.522-1.4,5.424-2.102,8.706-2.102,3.162,0,5.994.682,8.496,2.041,2.5,1.362,4.442,3.293,5.824,5.795,1.38,2.502,2.071,5.373,2.071,8.615,0,1.201-.081,2.281-.24,3.241ZM1010.066,606.459c-.041-2.161-.82-3.891-2.342-5.192-1.522-1.301-3.383-1.951-5.583-1.951-2.082,0-3.834.63-5.253,1.89-1.422,1.26-2.292,3.012-2.613,5.253h15.79Z" fill="#083400"/>
        <path d="M1030.298,625.282c-2.161-.98-3.873-2.312-5.133-3.993s-1.951-3.543-2.071-5.583h8.464c.16,1.281.79,2.34,1.892,3.182,1.1.84,2.471,1.26,4.112,1.26,1.601,0,2.852-.321,3.753-.962.899-.639,1.351-1.459,1.351-2.462,0-1.08-.551-1.89-1.651-2.43-1.102-.54-2.852-1.131-5.255-1.771-2.482-.601-4.512-1.222-6.093-1.863-1.581-.639-2.942-1.62-4.083-2.941s-1.712-3.103-1.712-5.343c0-1.841.531-3.523,1.592-5.045,1.059-1.52,2.581-2.721,4.562-3.602,1.983-.879,4.313-1.321,6.996-1.321,3.961,0,7.123.991,9.485,2.972,2.362,1.983,3.663,4.654,3.902,8.017h-8.044c-.12-1.321-.671-2.373-1.651-3.152-.982-.781-2.292-1.172-3.934-1.172-1.522,0-2.692.282-3.512.842-.82.56-1.231,1.341-1.231,2.34,0,1.122.56,1.973,1.68,2.552,1.12.58,2.861,1.172,5.223,1.772,2.403.599,4.383,1.22,5.944,1.861,1.562.639,2.913,1.631,4.053,2.972s1.73,3.112,1.771,5.312c0,1.922-.531,3.644-1.59,5.164-1.061,1.522-2.583,2.712-4.564,3.573s-4.293,1.29-6.933,1.29c-2.723,0-5.164-.49-7.326-1.47Z" fill="#083400"/>
      </g>
    </g>
    <g>
      <g>
        <g>
          <path d="M564.004,439.67c0,55.411,44.919,100.33,100.33,100.33h0c0-55.411-44.919-100.33-100.33-100.33h0Z" fill="#88e03b"/>
          <path d="M764.664,439.67h0c-55.411,0-100.33,44.919-100.33,100.33h0c55.411,0,100.33-44.919,100.33-100.33Z" fill="#88e03b"/>
        </g>
        <path d="M564.004,640.33h0c55.411,0,100.33-44.919,100.33-100.33h0c-55.411,0-100.33,44.919-100.33,100.33Z" fill="#5cb30d"/>
      </g>
      <circle cx="716.908" cy="592.574" r="47.756" fill="#083400"/>
    </g>
  </g>
</svg>