<?xml version="1.0" encoding="UTF-8"?>
<svg id="Layer_2" data-name="Layer 2" xmlns="http://www.w3.org/2000/svg" viewBox="0 0 791.99 204.13">
  <defs>
    <style>
      .cls-1 {
        fill: #88e03b;
      }

      .cls-2 {
        fill: #fff;
      }

      .cls-3 {
        fill: #5cb30d;
      }
    </style>
  </defs>
  <g id="Layer_1-2" data-name="Layer 1">
    <g>
      <g>
        <g>
          <path class="cls-2" d="M337.56,6.54l-36.76,70.88v37.85h-21.81v-37.85L242.07,6.54h24.61l23.37,49.69,23.21-49.69h24.3Z"/>
          <path class="cls-2" d="M341.11,48.6c3.48-6.75,8.2-11.94,14.18-15.58,5.97-3.64,12.64-5.45,20.02-5.45,6.44,0,12.07,1.3,16.9,3.89,4.83,2.6,8.7,5.87,11.61,9.81v-12.31h21.96v86.3h-21.96v-12.62c-2.8,4.05-6.67,7.4-11.61,10.05-4.93,2.65-10.62,3.97-17.06,3.97-7.27,0-13.89-1.87-19.86-5.61-5.97-3.74-10.7-9.01-14.18-15.81-3.48-6.8-5.22-14.62-5.22-23.44s1.74-16.46,5.22-23.21ZM400.69,58.49c-2.08-3.79-4.88-6.7-8.41-8.72-3.53-2.02-7.32-3.04-11.37-3.04s-7.79.99-11.22,2.96c-3.43,1.97-6.21,4.86-8.33,8.64-2.13,3.79-3.19,8.28-3.19,13.48s1.06,9.74,3.19,13.63c2.13,3.9,4.93,6.88,8.41,8.96,3.48,2.08,7.19,3.12,11.14,3.12s7.84-1.01,11.37-3.04c3.53-2.02,6.33-4.93,8.41-8.72,2.08-3.79,3.12-8.34,3.12-13.63s-1.04-9.84-3.12-13.63Z"/>
          <path class="cls-2" d="M479.9,31.62c4.52-2.59,9.68-3.9,15.5-3.9v22.9h-5.76c-6.85,0-12.02,1.61-15.5,4.83-3.48,3.22-5.22,8.83-5.22,16.82v42.99h-21.81V28.97h21.81v13.39c2.8-4.57,6.47-8.15,10.98-10.75Z"/>
          <path class="cls-2" d="M509.65,48.6c3.48-6.75,8.23-11.94,14.25-15.58,6.02-3.64,12.72-5.45,20.1-5.45,5.61,0,10.96,1.22,16.04,3.66,5.09,2.44,9.14,5.69,12.15,9.74V0h22.12v115.27h-22.12v-12.77c-2.7,4.26-6.49,7.69-11.37,10.28-4.88,2.59-10.54,3.9-16.98,3.9-7.27,0-13.92-1.87-19.94-5.61-6.02-3.74-10.77-9.01-14.25-15.81-3.48-6.8-5.22-14.62-5.22-23.44s1.74-16.46,5.22-23.21ZM569.24,58.49c-2.08-3.79-4.88-6.7-8.41-8.72-3.53-2.02-7.32-3.04-11.37-3.04s-7.79.99-11.22,2.96c-3.43,1.97-6.21,4.86-8.33,8.64-2.13,3.79-3.19,8.28-3.19,13.48s1.06,9.74,3.19,13.63c2.13,3.9,4.93,6.88,8.41,8.96,3.48,2.08,7.19,3.12,11.14,3.12s7.84-1.01,11.37-3.04c3.53-2.02,6.33-4.93,8.41-8.72,2.08-3.79,3.12-8.34,3.12-13.63s-1.04-9.84-3.12-13.63Z"/>
          <path class="cls-2" d="M695.26,78.67h-63.09c.52,6.23,2.7,11.11,6.54,14.64,3.84,3.53,8.57,5.3,14.18,5.3,8.1,0,13.86-3.48,17.29-10.44h23.52c-2.49,8.31-7.27,15.14-14.33,20.48-7.06,5.35-15.73,8.02-26.01,8.02-8.31,0-15.76-1.84-22.35-5.53-6.6-3.69-11.74-8.9-15.42-15.66-3.69-6.75-5.53-14.54-5.53-23.37s1.82-16.77,5.45-23.52c3.63-6.75,8.72-11.94,15.27-15.58,6.54-3.64,14.07-5.45,22.59-5.45s15.55,1.77,22.04,5.3c6.49,3.53,11.53,8.54,15.11,15.03,3.58,6.49,5.37,13.94,5.37,22.35,0,3.12-.21,5.92-.62,8.41ZM673.29,64.02c-.11-5.61-2.13-10.1-6.08-13.47-3.95-3.37-8.78-5.06-14.49-5.06-5.4,0-9.95,1.64-13.63,4.91-3.69,3.27-5.95,7.81-6.78,13.63h40.97Z"/>
          <path class="cls-2" d="M791.37,78.67h-63.09c.52,6.23,2.7,11.11,6.54,14.64,3.84,3.53,8.57,5.3,14.18,5.3,8.1,0,13.86-3.48,17.29-10.44h23.52c-2.49,8.31-7.27,15.14-14.33,20.48-7.06,5.35-15.73,8.02-26.01,8.02-8.31,0-15.76-1.84-22.35-5.53-6.6-3.69-11.74-8.9-15.42-15.66-3.69-6.75-5.53-14.54-5.53-23.37s1.82-16.77,5.45-23.52c3.63-6.75,8.72-11.94,15.27-15.58,6.54-3.64,14.07-5.45,22.59-5.45s15.55,1.77,22.04,5.3c6.49,3.53,11.53,8.54,15.11,15.03,3.58,6.49,5.37,13.94,5.37,22.35,0,3.12-.21,5.92-.62,8.41ZM769.41,64.02c-.11-5.61-2.13-10.1-6.08-13.47-3.95-3.37-8.78-5.06-14.49-5.06-5.4,0-9.95,1.64-13.63,4.91-3.69,3.27-5.95,7.81-6.78,13.63h40.97Z"/>
        </g>
        <g>
          <path class="cls-2" d="M276.31,187.19c-2.34-1-4.19-2.44-5.56-4.32-1.36-1.88-2.06-4.1-2.1-6.66h9.01c.12,1.72.73,3.08,1.83,4.08,1.1,1,2.61,1.5,4.53,1.5s3.5-.47,4.62-1.41c1.12-.94,1.68-2.17,1.68-3.69,0-1.24-.38-2.26-1.14-3.06-.76-.8-1.71-1.43-2.85-1.89s-2.71-.97-4.71-1.53c-2.72-.8-4.93-1.59-6.63-2.37-1.7-.78-3.16-1.96-4.38-3.54-1.22-1.58-1.83-3.69-1.83-6.33,0-2.48.62-4.64,1.86-6.48,1.24-1.84,2.98-3.25,5.22-4.23,2.24-.98,4.8-1.47,7.68-1.47,4.32,0,7.83,1.05,10.54,3.15,2.7,2.1,4.19,5.03,4.47,8.8h-9.25c-.08-1.44-.69-2.63-1.83-3.57-1.14-.94-2.65-1.41-4.53-1.41-1.64,0-2.95.42-3.93,1.26-.98.84-1.47,2.06-1.47,3.66,0,1.12.37,2.05,1.11,2.79s1.66,1.34,2.76,1.8c1.1.46,2.65.99,4.65,1.59,2.72.8,4.94,1.6,6.66,2.4,1.72.8,3.2,2,4.44,3.6,1.24,1.6,1.86,3.7,1.86,6.3,0,2.24-.58,4.32-1.74,6.24-1.16,1.92-2.86,3.45-5.1,4.59-2.24,1.14-4.9,1.71-7.98,1.71-2.92,0-5.56-.5-7.9-1.5Z"/>
          <path class="cls-2" d="M319.17,156c1.9-1.02,4.07-1.53,6.52-1.53,2.84,0,5.41.7,7.71,2.1,2.3,1.4,4.12,3.39,5.46,5.97,1.34,2.58,2.01,5.57,2.01,8.98s-.67,6.41-2.01,9.04c-1.34,2.62-3.16,4.65-5.46,6.09-2.3,1.44-4.87,2.16-7.71,2.16-2.44,0-4.59-.5-6.45-1.5-1.86-1-3.37-2.26-4.53-3.78v20.59h-8.41v-49.11h8.41v4.8c1.08-1.52,2.57-2.79,4.47-3.81ZM331.06,166.33c-.82-1.46-1.9-2.57-3.24-3.33-1.34-.76-2.79-1.14-4.35-1.14s-2.95.39-4.29,1.17c-1.34.78-2.42,1.91-3.24,3.39-.82,1.48-1.23,3.22-1.23,5.22s.41,3.74,1.23,5.22c.82,1.48,1.9,2.61,3.24,3.39,1.34.78,2.77,1.17,4.29,1.17s3.01-.4,4.35-1.2c1.34-.8,2.42-1.94,3.24-3.42.82-1.48,1.23-3.24,1.23-5.28s-.41-3.73-1.23-5.19Z"/>
          <path class="cls-2" d="M346.85,162.58c1.34-2.6,3.16-4.6,5.46-6,2.3-1.4,4.87-2.1,7.71-2.1,2.48,0,4.65.5,6.52,1.5s3.35,2.26,4.47,3.78v-4.74h8.46v33.26h-8.46v-4.86c-1.08,1.56-2.57,2.85-4.47,3.87s-4.09,1.53-6.57,1.53c-2.8,0-5.35-.72-7.66-2.16-2.3-1.44-4.12-3.47-5.46-6.09-1.34-2.62-2.01-5.63-2.01-9.04s.67-6.34,2.01-8.95ZM369.81,166.39c-.8-1.46-1.88-2.58-3.24-3.36-1.36-.78-2.82-1.17-4.38-1.17s-3,.38-4.32,1.14c-1.32.76-2.39,1.87-3.21,3.33-.82,1.46-1.23,3.19-1.23,5.19s.41,3.75,1.23,5.25,1.9,2.65,3.24,3.45c1.34.8,2.77,1.2,4.29,1.2s3.02-.39,4.38-1.17c1.36-.78,2.44-1.9,3.24-3.36.8-1.46,1.2-3.21,1.2-5.25s-.4-3.79-1.2-5.25Z"/>
          <path class="cls-2" d="M387.65,162.61c1.4-2.58,3.34-4.58,5.82-6,2.48-1.42,5.32-2.13,8.53-2.13,4.12,0,7.53,1.03,10.24,3.09,2.7,2.06,4.51,4.95,5.43,8.67h-9.07c-.48-1.44-1.29-2.57-2.43-3.39-1.14-.82-2.55-1.23-4.23-1.23-2.4,0-4.3.87-5.7,2.61-1.4,1.74-2.1,4.21-2.1,7.41s.7,5.61,2.1,7.36c1.4,1.74,3.3,2.61,5.7,2.61,3.4,0,5.62-1.52,6.66-4.56h9.07c-.92,3.6-2.74,6.46-5.46,8.58-2.72,2.12-6.12,3.18-10.21,3.18-3.2,0-6.05-.71-8.53-2.13-2.48-1.42-4.42-3.42-5.82-6-1.4-2.58-2.1-5.59-2.1-9.04s.7-6.45,2.1-9.04Z"/>
          <path class="cls-2" d="M454.53,174.17h-24.32c.2,2.4,1.04,4.28,2.52,5.64,1.48,1.36,3.3,2.04,5.46,2.04,3.12,0,5.34-1.34,6.66-4.02h9.07c-.96,3.2-2.8,5.84-5.52,7.9-2.72,2.06-6.06,3.09-10.03,3.09-3.2,0-6.07-.71-8.62-2.13-2.54-1.42-4.52-3.43-5.94-6.03s-2.13-5.6-2.13-9.01.7-6.46,2.1-9.07c1.4-2.6,3.36-4.6,5.88-6,2.52-1.4,5.42-2.1,8.71-2.1s5.99.68,8.5,2.04c2.5,1.36,4.44,3.29,5.82,5.79,1.38,2.5,2.07,5.37,2.07,8.62,0,1.2-.08,2.28-.24,3.24ZM446.06,168.52c-.04-2.16-.82-3.89-2.34-5.19-1.52-1.3-3.38-1.95-5.58-1.95-2.08,0-3.83.63-5.25,1.89-1.42,1.26-2.29,3.01-2.61,5.25h15.79Z"/>
          <path class="cls-2" d="M466.29,187.35c-2.16-.98-3.87-2.31-5.13-3.99-1.26-1.68-1.95-3.54-2.07-5.58h8.46c.16,1.28.79,2.34,1.89,3.18,1.1.84,2.47,1.26,4.11,1.26s2.85-.32,3.75-.96c.9-.64,1.35-1.46,1.35-2.46,0-1.08-.55-1.89-1.65-2.43-1.1-.54-2.85-1.13-5.25-1.77-2.48-.6-4.51-1.22-6.09-1.86-1.58-.64-2.94-1.62-4.08-2.94s-1.71-3.1-1.71-5.34c0-1.84.53-3.52,1.59-5.04,1.06-1.52,2.58-2.72,4.56-3.6,1.98-.88,4.31-1.32,7-1.32,3.96,0,7.12.99,9.49,2.97,2.36,1.98,3.66,4.65,3.9,8.02h-8.04c-.12-1.32-.67-2.37-1.65-3.15-.98-.78-2.29-1.17-3.93-1.17-1.52,0-2.69.28-3.51.84-.82.56-1.23,1.34-1.23,2.34,0,1.12.56,1.97,1.68,2.55,1.12.58,2.86,1.17,5.22,1.77,2.4.6,4.38,1.22,5.94,1.86,1.56.64,2.91,1.63,4.05,2.97,1.14,1.34,1.73,3.11,1.77,5.31,0,1.92-.53,3.64-1.59,5.16-1.06,1.52-2.58,2.71-4.56,3.57s-4.29,1.29-6.93,1.29-5.16-.49-7.33-1.47Z"/>
        </g>
      </g>
      <g>
        <g>
          <g>
            <path class="cls-1" d="M0,1.73c0,55.41,44.92,100.33,100.33,100.33h0C100.33,46.65,55.41,1.73,0,1.73h0Z"/>
            <path class="cls-1" d="M200.66,1.73h0c-55.41,0-100.33,44.92-100.33,100.33h0c55.41,0,100.33-44.92,100.33-100.33Z"/>
          </g>
          <path class="cls-3" d="M0,202.39h0c55.41,0,100.33-44.92,100.33-100.33h0c-55.41,0-100.33,44.92-100.33,100.33Z"/>
        </g>
        <circle class="cls-2" cx="152.9" cy="154.64" r="47.76"/>
      </g>
    </g>
  </g>
</svg>