<svg width="19" height="20" viewBox="0 0 19 20" fill="none" xmlns="http://www.w3.org/2000/svg">
<path fill-rule="evenodd" clip-rule="evenodd" d="M18.5954 18.4694L14.0742 13.7762C16.7964 10.383 16.4666 5.36693 13.3254 2.38935C10.1842 -0.588237 5.34281 -0.474001 2.33514 2.64867C-0.672534 5.77134 -0.782562 10.7978 2.08537 14.0591C4.9533 17.3204 9.78467 17.6629 13.0529 14.8366L17.5732 19.5306C17.8555 19.8237 18.3131 19.8237 18.5954 19.5306C18.8776 19.2376 18.8776 18.7624 18.5954 18.4694ZM1.46956 8.5C1.46956 4.77208 4.38035 1.75 7.97098 1.75C11.5616 1.75 14.4724 4.77208 14.4724 8.5C14.4724 12.2279 11.5616 15.25 7.97098 15.25C4.382 15.2459 1.47355 12.2262 1.46956 8.5Z" fill="#121417"/>
</svg>
